# xmcd
# 
# Track frame offsets:
#     150
#     21319
#     41796
#     62989
#     82191
#     97466
#     118493
#     139270
#     159879
#     169141
#     192489
# 
# Disc length: 2965
# 
# Revision: 0
# Processed by: cddbd v1.5.2PL0 Copyright (c) Steve Scherf et al.
# Submitted via: fre:ac v1.0.27
# 
DISCID=ab0b930b
DTITLE=Michael Peterson - We Are Veterans
DYEAR=2012
DGENRE=Country
TTITLE0=Wave On Old Glory, Wave On
TTITLE1=Old Army Hat
TTITLE2=Guys Like You And Me
TTITLE3=Underdog
TTITLE4=I Remember America
TTITLE5=He Ain't Heavy, He's My Brother
TTITLE6=It's Who We Are
TTITLE7=You Could Hear A Pin Drop
TTITLE8=Dear God
TTITLE9=We Are Veterans (The Veterans Anthem)
TTITLE10=Data track
EXTD=
EXTT0=
EXTT1=
EXTT2=
EXTT3=
EXTT4=
EXTT5=
EXTT6=
EXTT7=
EXTT8=
EXTT9=
EXTT10=
PLAYORDER=
